<svg xmlns="http://www.w3.org/2000/svg" width="28.336" height="28.332" viewBox="0 0 28.336 28.332"><defs><style>.a{fill:#272d3b;}</style></defs><g transform="translate(27.426 2.427)"><path class="a" d="M26.5,1.862a6.249,6.249,0,0,0-8.845,0L1.439,18.073a.811.811,0,0,0-.229.465l-1.2,8.9a.809.809,0,0,0,.229.682.825.825,0,0,0,.574.242.656.656,0,0,0,.109-.006l5.361-.724a.816.816,0,0,0-.217-1.618l-4.3.58L2.6,20.385l6.533,6.533a.825.825,0,0,0,.574.241.8.8,0,0,0,.574-.241L26.5,10.707a6.246,6.246,0,0,0,0-8.845ZM17.97,3.854l2.723,2.723-14.8,14.8L3.172,18.652ZM9.716,25.191,7.054,22.528l14.8-14.8,2.663,2.663ZM25.649,9.228,19.135,2.713a4.628,4.628,0,0,1,6.514,6.514Z" transform="translate(-27.426 -2.455)"/></g></svg>