<svg xmlns="http://www.w3.org/2000/svg" width="28.812" height="32.395" viewBox="0 0 28.812 32.395"><defs><style>.a{fill:#ff0000;}</style></defs><g transform="translate(-24.66 -10.239)"><g transform="translate(24.66 10.239)"><path class="a" d="M54.813,4.662h-6.74v-1.1A3.567,3.567,0,0,0,44.509,0H38.1a3.567,3.567,0,0,0-3.563,3.563v1.1H27.8a.9.9,0,1,0,0,1.8h1.625V27.586a4.815,4.815,0,0,0,4.809,4.809H48.379a4.815,4.815,0,0,0,4.809-4.809V6.46h1.625a.9.9,0,0,0,0-1.8Zm-18.475-1.1A1.768,1.768,0,0,1,38.1,1.8h6.407a1.768,1.768,0,0,1,1.765,1.765v1.1H36.337ZM51.389,27.586a3.016,3.016,0,0,1-3.01,3.01H34.233a3.016,3.016,0,0,1-3.01-3.01V6.46H51.4V27.586Z" transform="translate(-26.9)"/><path class="a" d="M230.6,163.089a.9.9,0,0,0,.9-.9V146.3a.9.9,0,0,0-1.8,0v15.884A.9.9,0,0,0,230.6,163.089Z" transform="translate(-216.193 -135.716)"/><path class="a" d="M142.5,175.911a.9.9,0,0,0,.9-.9V161.1a.9.9,0,0,0-1.8,0v13.913A.9.9,0,0,0,142.5,175.911Z" transform="translate(-133.961 -149.531)"/><path class="a" d="M318.7,175.911a.9.9,0,0,0,.9-.9V161.1a.9.9,0,1,0-1.8,0v13.913A.9.9,0,0,0,318.7,175.911Z" transform="translate(-298.426 -149.531)"/></g></g></svg>